<svg width="160" height="160" viewBox="0 0 160 160" fill="none" xmlns="http://www.w3.org/2000/svg">
<rect x="12" y="12" width="136" height="136" rx="32" fill="url(#bg)"/>
<rect x="22" y="22" width="116" height="116" rx="24" fill="url(#panel)" fill-opacity="0.9"/>
<path d="M53 53C53 46.3726 58.3726 41 65 41H95C101.627 41 107 46.3726 107 53V107C107 113.627 101.627 119 95 119H65C58.3726 119 53 113.627 53 107V53Z" fill="white" fill-opacity="0.95"/>
<path d="M66 55H94" stroke="#CBD5E1" stroke-width="6" stroke-linecap="round"/>
<path d="M66 73H94" stroke="#CBD5E1" stroke-width="6" stroke-linecap="round"/>
<path d="M66 91H82" stroke="#CBD5E1" stroke-width="6" stroke-linecap="round"/>
<circle cx="101" cy="61" r="18" fill="url(#orb)"/>
<path d="M100.999 49C94.9227 49 90 53.9227 90 60C90 68.25 100.999 79 100.999 79C100.999 79 112 68.25 112 60C112 53.9227 107.075 49 100.999 49ZM100.999 64.75C98.3766 64.75 96.25 62.6234 96.25 60C96.25 57.3766 98.3766 55.25 100.999 55.25C103.623 55.25 105.75 57.3766 105.75 60C105.75 62.6234 103.623 64.75 100.999 64.75Z" fill="white"/>
<path d="M53 103L69 94L84 101L107 90" stroke="#2563EB" stroke-width="7" stroke-linecap="round" stroke-linejoin="round"/>
<circle cx="53" cy="103" r="7" fill="#0F172A"/>
<circle cx="69" cy="94" r="7" fill="#2563EB"/>
<circle cx="84" cy="101" r="7" fill="#14B8A6"/>
<circle cx="107" cy="90" r="7" fill="#0F172A"/>
<defs>
<linearGradient id="bg" x1="24" y1="20" x2="138" y2="144" gradientUnits="userSpaceOnUse">
<stop stop-color="#0F172A"/>
<stop offset="0.52" stop-color="#1D4ED8"/>
<stop offset="1" stop-color="#14B8A6"/>
</linearGradient>
<linearGradient id="panel" x1="32" y1="28" x2="126" y2="132" gradientUnits="userSpaceOnUse">
<stop stop-color="white" stop-opacity="0.3"/>
<stop offset="1" stop-color="white" stop-opacity="0.08"/>
</linearGradient>
<linearGradient id="orb" x1="87" y1="45" x2="115" y2="77" gradientUnits="userSpaceOnUse">
<stop stop-color="#38BDF8"/>
<stop offset="1" stop-color="#2563EB"/>
</linearGradient>
</defs>
</svg>
